<svg width="24" height="25" viewBox="0 0 24 25" fill="none" xmlns="http://www.w3.org/2000/svg">
<path d="M4 8.0835C4 7.02263 4.42143 6.00521 5.17157 5.25507C5.92172 4.50492 6.93913 4.0835 8 4.0835H16C17.0609 4.0835 18.0783 4.50492 18.8284 5.25507C19.5786 6.00521 20 7.02263 20 8.0835V16.0835C20 17.1444 19.5786 18.1618 18.8284 18.9119C18.0783 19.6621 17.0609 20.0835 16 20.0835H8C6.93913 20.0835 5.92172 19.6621 5.17157 18.9119C4.42143 18.1618 4 17.1444 4 16.0835V8.0835Z" stroke="#676C72" stroke-width="2" stroke-linecap="round" stroke-linejoin="round"/>
<path d="M9 12.0835C9 12.8791 9.31607 13.6422 9.87868 14.2048C10.4413 14.7674 11.2044 15.0835 12 15.0835C12.7956 15.0835 13.5587 14.7674 14.1213 14.2048C14.6839 13.6422 15 12.8791 15 12.0835C15 11.2878 14.6839 10.5248 14.1213 9.96218C13.5587 9.39957 12.7956 9.0835 12 9.0835C11.2044 9.0835 10.4413 9.39957 9.87868 9.96218C9.31607 10.5248 9 11.2878 9 12.0835Z" stroke="#676C72" stroke-width="2" stroke-linecap="round" stroke-linejoin="round"/>
<path d="M16.5 7.5835V7.5935" stroke="#676C72" stroke-width="2" stroke-linecap="round" stroke-linejoin="round"/>
</svg>
