<svg width="382" height="200" viewBox="0 0 382 200" fill="none" xmlns="http://www.w3.org/2000/svg">
<rect x="0.196289" y="101.587" width="163.96" height="62.0165" rx="31.0082" transform="rotate(-33.5184 0.196289 101.587)" fill="#211F22"/>
<rect width="163.96" height="62.0165" rx="31.0082" transform="matrix(0.895344 0.445376 0.445376 -0.895344 1.73438 126.476)" fill="#211F22"/>
<rect x="364.315" y="99.5051" width="163.96" height="62.0165" rx="31.0082" transform="rotate(146.482 364.315 99.5051)" fill="#211F22"/>
<rect width="163.96" height="62.0165" rx="31.0082" transform="matrix(-0.895344 -0.445376 -0.445376 0.895344 362.778 74.616)" fill="#211F22"/>
<rect x="17.8818" y="100.494" width="163.96" height="62.0165" rx="31.0082" transform="rotate(-33.5184 17.8818 100.494)" fill="#E9452A"/>
<rect width="165.91" height="62.0165" rx="31.0082" transform="matrix(0.895344 0.445376 0.445376 -0.895344 17.6738 124.516)" fill="#2186EE"/>
<rect x="382" y="98.4128" width="163.96" height="62.0165" rx="31.0082" transform="rotate(146.482 382 98.4128)" fill="#FDB528"/>
<rect width="165.298" height="62.0165" rx="31.0082" transform="matrix(-0.895344 -0.445376 -0.445376 0.895344 381.66 74.1195)" fill="#30AC66"/>
</svg>
